<svg xmlns="http://www.w3.org/2000/svg" width="11" height="12" viewBox="0 0 11 12">
  <metadata><?xpacket begin="﻿" id="W5M0MpCehiHzreSzNTczkc9d"?>
<x:xmpmeta xmlns:x="adobe:ns:meta/" x:xmptk="Adobe XMP Core 5.6-c142 79.160924, 2017/07/13-01:06:39        ">
   <rdf:RDF xmlns:rdf="http://www.w3.org/1999/02/22-rdf-syntax-ns#">
      <rdf:Description rdf:about=""/>
   </rdf:RDF>
</x:xmpmeta> 
<?xpacket end="w"?></metadata>
<defs>
    <style>
      .cls-1 {
        fill: #2e3641;
        fill-rule: evenodd;
      }
    </style>
  </defs>
  <path id="trash_kopia_3" data-name="trash kopia 3" class="cls-1" d="M0,3H0V2H2V0H9V2h2V3H0ZM3,2H8V1H3V2Zm7,10h0Zm0-9v8a1.037,1.037,0,0,1-1,1H2a1.037,1.037,0,0,1-1-1V3C5.531,2.992,5.594,3,10,3ZM3,4H4v6H3V4ZM5,4H6v6H5V4ZM7,4H8v6H7V4Z"/>
</svg>
